<svg width="17" height="14" viewBox="0 0 17 14" fill="none" xmlns="http://www.w3.org/2000/svg">
<path d="M0.749998 13.1875L0.749998 13.75L1.875 13.75L1.875 13.1875L1.875 0.8125L1.875 0.25L0.75 0.25L0.75 0.8125L0.749998 13.1875ZM4.29023 6.60273L3.89297 7L4.29023 7.39727L8.79023 11.8973L9.1875 12.2945L9.98203 11.5L9.58476 11.1027L6.04453 7.5625L9.75 7.5625L15.9375 7.5625L16.5 7.5625L16.5 6.4375L15.9375 6.4375L9.75 6.4375L6.04453 6.4375L9.58476 2.89727L9.98203 2.5L9.1875 1.70547L8.79023 2.10274L4.29023 6.60273Z" fill="#0C111D"/>
</svg>
