<svg width="17" height="14" viewBox="0 0 17 14" fill="none" xmlns="http://www.w3.org/2000/svg">
<path d="M16.25 0.8125L16.25 0.25L15.125 0.25L15.125 0.8125L15.125 13.1875L15.125 13.75L16.25 13.75L16.25 13.1875L16.25 0.8125ZM12.7098 7.39727L13.107 7L12.7098 6.60273L8.20977 2.10273L7.8125 1.70547L7.01797 2.5L7.41524 2.89726L10.9555 6.4375L7.25 6.4375L1.0625 6.4375L0.500001 6.4375L0.500001 7.5625L1.0625 7.5625L7.25 7.5625L10.9555 7.5625L7.41523 11.1027L7.01797 11.5L7.8125 12.2945L8.20977 11.8973L12.7098 7.39727Z" fill="#0C111D"/>
</svg>
